<?xml version="1.0" standalone="no"?>
<!DOCTYPE svg PUBLIC "-//W3C//DTD SVG 20010904//EN"
 "http://www.w3.org/TR/2001/REC-SVG-20010904/DTD/svg10.dtd">
<svg version="1.0" xmlns="http://www.w3.org/2000/svg"
 width="256.000000pt" height="256.000000pt" viewBox="0 0 256.000000 256.000000"
 preserveAspectRatio="xMidYMid meet">
<metadata>
Created by potrace 1.11, written by Peter Selinger 2001-2013
</metadata>
<g transform="translate(0.000000,256.000000) scale(0.100000,-0.100000)"
fill="#000000" stroke="none">
<path d="M1438 2495 c-3 -4 -79 -16 -165 -28 -21 -3 -33 -13 -92 -83 -20 -25
-37 -33 -75 -38 -27 -4 -52 -9 -55 -10 -3 -2 -28 -6 -56 -10 -27 -3 -61 -8
-75 -11 -13 -2 -42 -7 -65 -10 -22 -3 -106 -17 -187 -31 -132 -23 -186 -31
-211 -33 -5 -1 -6 -13 -3 -28 3 -16 8 -50 11 -78 3 -27 8 -61 10 -75 2 -14 11
-81 20 -150 8 -69 18 -141 21 -160 3 -19 7 -55 10 -80 4 -47 12 -108 19 -150
3 -14 7 -45 9 -70 3 -25 14 -112 25 -195 22 -165 28 -223 36 -365 4 -52 8
-117 10 -145 2 -27 7 -88 10 -135 3 -47 7 -103 10 -125 2 -22 7 -91 10 -154 4
-63 9 -123 11 -134 2 -12 4 -45 5 -74 1 -30 6 -56 10 -59 11 -7 87 -18 119
-17 14 0 59 16 100 35 41 19 154 70 250 113 96 43 198 88 225 100 28 13 133
60 235 105 369 164 366 163 363 177 -1 7 -5 113 -18 473 -2 52 -7 160 -10 240
-4 80 -8 181 -10 225 -2 44 -4 274 -5 512 -2 410 -3 433 -21 438 -37 12 -97 8
-217 -14 l-123 -23 -23 25 c-12 13 -32 28 -44 31 -31 10 -60 15 -64 11z"/>
</g>
</svg>
