<?xml version="1.0" standalone="no"?>
<!DOCTYPE svg PUBLIC "-//W3C//DTD SVG 20010904//EN"
 "http://www.w3.org/TR/2001/REC-SVG-20010904/DTD/svg10.dtd">
<svg version="1.0" xmlns="http://www.w3.org/2000/svg"
 width="256.000000pt" height="256.000000pt" viewBox="0 0 256.000000 256.000000"
 preserveAspectRatio="xMidYMid meet">
<metadata>
Created by potrace 1.11, written by Peter Selinger 2001-2013
</metadata>
<g transform="translate(0.000000,256.000000) scale(0.100000,-0.100000)"
fill="#000000" stroke="none">
<path d="M1005 2546 c-45 -20 -72 -65 -74 -123 -1 -29 -24 -40 -93 -46 -31 -3
-65 -11 -76 -18 -62 -39 -61 -143 2 -184 23 -15 59 -18 297 -18 255 0 271 1
297 20 15 11 33 38 41 59 12 35 12 44 -3 74 -22 47 -48 62 -124 68 -69 5 -65
1 -93 91 -8 24 -26 53 -40 63 -34 25 -96 32 -134 14z m79 -67 c47 -22 35 -91
-17 -97 -55 -7 -81 45 -42 84 28 28 26 27 59 13z"/>
<path d="M328 2297 c-35 -13 -66 -46 -79 -86 -9 -27 -12 -264 -12 -921 0 -487
3 -901 7 -921 7 -40 46 -85 86 -102 27 -11 959 -17 966 -6 2 4 -3 29 -11 56
-8 27 -16 66 -17 86 l-3 37 -422 0 -423 0 0 730 0 730 23 1 c35 1 1199 1 1230
0 l27 -1 0 -428 0 -429 48 8 c26 4 66 8 90 8 36 1 42 4 43 24 0 12 1 268 1
569 l1 548 -28 36 c-43 56 -80 66 -235 68 l-135 1 -6 -52 c-8 -65 -50 -126
-103 -150 -35 -16 -72 -18 -321 -18 -261 1 -283 2 -314 20 -55 32 -89 83 -98
145 l-8 55 -143 0 c-78 0 -152 -3 -164 -8z"/>
<path d="M728 1736 c-34 -36 -67 -66 -74 -66 -6 0 -18 7 -25 16 -31 37 -79 34
-79 -6 0 -18 88 -92 115 -96 24 -4 160 153 160 184 0 49 -31 38 -97 -32z"/>
<path d="M912 1711 c-16 -10 -22 -60 -10 -83 8 -17 34 -18 324 -18 l315 0 8
23 c10 27 4 69 -12 79 -16 10 -609 10 -625 -1z"/>
<path d="M727 1407 l-64 -70 -36 27 c-41 31 -71 31 -75 0 -4 -25 84 -104 115
-104 26 0 163 156 163 185 0 14 -8 25 -20 28 -15 4 -35 -12 -83 -66z"/>
<path d="M906 1375 c-13 -14 -14 -46 -1 -82 3 -10 77 -13 320 -13 l316 0 8 23
c10 27 4 69 -12 79 -7 4 -148 8 -314 8 -255 0 -304 -2 -317 -15z"/>
<path d="M722 1093 l-59 -67 -37 27 c-42 33 -79 30 -74 -6 4 -31 105 -110 125
-98 9 4 47 43 84 86 74 84 89 125 45 125 -17 0 -41 -20 -84 -67z"/>
<path d="M910 1083 c-16 -11 -19 -21 -14 -46 3 -18 9 -36 14 -41 4 -4 106 -8
226 -8 166 1 219 4 225 14 16 24 10 77 -8 87 -10 5 -109 9 -221 8 -156 0 -207
-3 -222 -14z"/>
<path d="M1730 936 c-197 -56 -337 -220 -356 -419 -16 -168 69 -341 220 -443
122 -83 329 -94 466 -24 113 57 204 168 242 293 17 58 20 86 15 163 -4 78 -11
104 -40 166 -61 127 -153 210 -284 254 -74 25 -195 29 -263 10z m419 -260 c21
-16 31 -54 21 -78 -5 -13 -23 -39 -41 -58 -47 -51 -105 -115 -179 -200 -91
-105 -109 -120 -140 -120 -33 0 -237 160 -251 197 -17 46 20 93 73 93 13 0 53
-24 92 -55 38 -30 72 -55 76 -55 5 0 63 62 130 138 141 159 169 177 219 138z"/>
<path d="M724 781 l-61 -68 -38 28 c-29 22 -42 26 -56 18 -32 -17 -21 -45 34
-88 30 -22 59 -41 64 -41 13 0 144 143 157 170 12 25 1 50 -21 50 -10 0 -46
-31 -79 -69z"/>
<path d="M905 746 c-15 -23 -13 -62 4 -79 15 -15 358 -12 376 3 18 15 14 78
-5 90 -7 4 -91 8 -187 8 -168 0 -174 -1 -188 -22z"/>
</g>
</svg>
